<svg width="18" height="18" viewBox="0 0 18 18" fill="none" xmlns="http://www.w3.org/2000/svg">
<path fill-rule="evenodd" clip-rule="evenodd" d="M14.034 11.613L17.358 14.937V14.949C18.048 15.6496 18.048 16.7744 17.358 17.475C16.6563 18.1709 15.5247 18.1709 14.823 17.475L11.442 14.1C10.296 14.7629 8.99494 15.1107 7.67101 15.108C3.50022 15.103 0.122698 11.7188 0.12601 7.54801C0.129321 3.37722 3.51222 -0.00164939 7.683 4.42154e-06C11.8538 0.00165944 15.234 3.38321 15.234 7.554C15.232 8.99415 14.8154 10.4033 14.034 11.613ZM3.12901 7.554C3.12901 10.0625 5.16253 12.096 7.67101 12.096C10.1795 12.096 12.213 10.0625 12.213 7.554C12.213 5.04552 10.1795 3.012 7.67101 3.012C5.16253 3.012 3.12901 5.04552 3.12901 7.554Z" fill="#373737"/>
</svg>
