<svg width="51" height="50" viewBox="0 0 51 50" fill="none" xmlns="http://www.w3.org/2000/svg">
<path fill-rule="evenodd" clip-rule="evenodd" d="M45.3333 25C45.3333 35.7389 36.4536 44.4444 25.5 44.4444C14.5464 44.4444 5.66667 35.7389 5.66667 25C5.66667 14.2611 14.5464 5.55556 25.5 5.55556C36.4536 5.55556 45.3333 14.2611 45.3333 25ZM51 25C51 38.8071 39.5833 50 25.5 50C11.4167 50 0 38.8071 0 25C0 11.1929 11.4167 0 25.5 0C39.5833 0 51 11.1929 51 25ZM33.0556 25C33.0556 29.091 29.6728 32.4074 25.5 32.4074C21.3272 32.4074 17.9444 29.091 17.9444 25C17.9444 20.909 21.3272 17.5926 25.5 17.5926C29.6728 17.5926 33.0556 20.909 33.0556 25ZM38.7222 25C38.7222 32.1592 32.8024 37.963 25.5 37.963C18.1976 37.963 12.2778 32.1592 12.2778 25C12.2778 17.8408 18.1976 12.037 25.5 12.037C32.8024 12.037 38.7222 17.8408 38.7222 25Z" fill="#F8A000"/>
</svg>
